<?xml version="1.0" encoding="UTF-8"?>
<svg xmlns="http://www.w3.org/2000/svg" style="stroke-dasharray:none; shape-rendering:auto; font-family:'Arial'; text-rendering:auto; fill-opacity:1; color-interpolation:auto; color-rendering:auto; font-size:12; fill:black; stroke:black; image-rendering:auto; stroke-miterlimit:10; stroke-linecap:square; stroke-linejoin:miter; font-style:normal; stroke-width:1; stroke-dashoffset:0; font-weight:normal; stroke-opacity:1;" contentScriptType="text/ecmascript" preserveAspectRatio="xMidYMid meet" zoomAndPan="magnify" version="1.0" contentStyleType="text/css" xml:xlink="http://www.w3.org/1999/xlink" width="861" height="621"><rect x="10" y="10" width="851" height="611" ry="0" rx="0" style="stroke:#000000; fill:#FFFFFF" /><rect x="40" y="416" width="821" height="205" ry="0" rx="0" style="stroke:#000000; fill:#82B0B7" /><g componentSequence="4"><text x="-518" y="49" transform="rotate(270)" text-anchor="middle" style="font-weight:bold;font-size:10px;stroke:none; fill:#434343"><tspan dy="14" x="-518">Fiscal</tspan></text></g><rect x="40" y="213" width="821" height="203" ry="0" rx="0" style="stroke:#000000; fill:#80FF80" /><g componentSequence="3"><text x="-314" y="49" transform="rotate(270)" text-anchor="middle" style="font-weight:bold;font-size:10px;stroke:none; fill:#434343"><tspan dy="14" x="-314">Contas a Pagar</tspan></text></g><rect x="40" y="10" width="821" height="203" ry="0" rx="0" style="stroke:#000000; fill:#FFFF80" /><g componentSequence="2"><text x="-111" y="49" transform="rotate(270)" text-anchor="middle" style="font-weight:bold;font-size:10px;stroke:none; fill:#434343"><tspan dy="14" x="-111">Solicitante</tspan></text></g><g componentSequence="1"><text x="-315" y="19" transform="rotate(270)" text-anchor="middle" style="font-weight:bold;font-size:10px;stroke:none; fill:#434343"><tspan dy="14" x="-315">Pool</tspan></text></g><g sequence="4"><ellipse cx="157" cy="113" rx="17" ry="17" stroke-width="1" style="fill:url(#linearGradient66FF6696FF96B6FFB6_1810322897);" stroke="336633" /></g><g sequence="12"><rect x="104" y="272" width="106" height="104" ry="5" rx="5" style="fill:url(#linearGradientF8FBFEEDF5FCDEEDFAD4E7F8E2E5E9_1696642781);" stroke="191970" /></g><g componentSequence="12"><text x="157" y="287" text-anchor="middle" style="font-weight:bold;font-size:10px;stroke:none; fill:#333399"><tspan dy="14" x="157">Confere</tspan><tspan dy="14" x="157">Informaçõe</tspan><tspan dy="14" x="157">s</tspan></text></g><g sequence="14"><rect x="390" y="79" width="106" height="104" ry="5" rx="5" style="fill:url(#linearGradientF8FBFEEDF5FCDEEDFAD4E7F8E2E5E9_1629437601);" stroke="191970" /></g><g componentSequence="14"><text x="443" y="94" text-anchor="middle" style="font-weight:bold;font-size:10px;stroke:none; fill:#333399"><tspan dy="14" x="443">Verifica</tspan><tspan dy="14" x="443">Inconsistên</tspan><tspan dy="14" x="443">cia</tspan></text></g><g sequence="17"><rect x="390" y="510" width="106" height="104" ry="5" rx="5" style="fill:url(#linearGradientF8FBFEEDF5FCDEEDFAD4E7F8E2E5E9_605928678);" stroke="191970" /></g><g componentSequence="17"><text x="443" y="525" text-anchor="middle" style="font-weight:bold;font-size:10px;stroke:none; fill:#333399"><tspan dy="14" x="443">Confere os</tspan><tspan dy="14" x="443">Dados</tspan><tspan dy="14" x="443">Fiscais</tspan></text></g><g sequence="20"><rect x="560" y="272" width="106" height="104" ry="5" rx="5" style="fill:url(#linearGradientF8FBFEEDF5FCDEEDFAD4E7F8E2E5E9_1971661929);" stroke="191970" /></g><g componentSequence="20"><text x="613" y="287" text-anchor="middle" style="font-weight:bold;font-size:10px;stroke:none; fill:#333399"><tspan dy="14" x="613">Processa</tspan><tspan dy="14" x="613">Pagamento</tspan></text></g><g sequence="22"><ellipse cx="789" cy="113" rx="17" ry="17" stroke-width="3" style="fill:url(#linearGradientFF6666FF9696FFB6B6_359922266);" stroke="993333" /></g><g sequence="24"><polygon points=" 413 293 443 263 473 293 443 323 413 293" style="fill:url(#linearGradientFAFBFCFFFFCC_218182755);" stroke="000000" /></g><g componentSequence="24"><text x="443" y="333" text-anchor="middle" style="font-weight:bold;font-size:10px;stroke:none; fill:#333399"><tspan dy="14" x="443">Decis</tspan><tspan dy="14" x="443">ão</tspan></text></g><g sequence="30"><polygon points=" 127 531 157 501 187 531 157 561 127 531" style="fill:url(#linearGradientFAFBFCFFFFCC_1144144809);" stroke="000000" /></g><g componentSequence="30"><text x="157" y="571" text-anchor="middle" style="font-weight:bold;font-size:10px;stroke:none; fill:#333399"><tspan dy="14" x="157">Decis</tspan><tspan dy="14" x="157">ão</tspan></text></g><g sequence="35"><polygon points=" 760 293 790 263 820 293 790 323 760 293" style="fill:url(#linearGradientFAFBFCFFFFCC_403233058);" stroke="000000" /></g><g componentSequence="35"><text x="790" y="333" text-anchor="middle" style="font-weight:bold;font-size:10px;stroke:none; fill:#333399"><tspan dy="14" x="790">Decis</tspan><tspan dy="14" x="790">ão</tspan></text></g><g componentSequence="25"><text x="321" y="322" style="font-size:10px;font-weight:none;stroke:none; fill:#333399" text-anchor="left" /></g><g componentSequence="27"><text x="453" y="445" style="font-size:10px;font-weight:none;stroke:none; fill:#333399" text-anchor="left" /></g><g componentSequence="28"><text x="453" y="223" style="font-size:10px;font-weight:none;stroke:none; fill:#333399" text-anchor="left" /></g><g componentSequence="29"><text x="310" y="227" style="font-size:10px;font-weight:none;stroke:none; fill:#333399" text-anchor="left" /></g><g componentSequence="31"><text x="298" y="560" style="font-size:10px;font-weight:none;stroke:none; fill:#333399" text-anchor="left" /></g><g componentSequence="32"><text x="167" y="438" style="font-size:10px;font-weight:none;stroke:none; fill:#333399" text-anchor="left" /></g><g componentSequence="33"><text x="383" y="447" style="font-size:10px;font-weight:none;stroke:none; fill:#333399" text-anchor="left" /></g><g componentSequence="34"><text x="167" y="201" style="font-size:10px;font-weight:none;stroke:none; fill:#333399" text-anchor="left" /></g><g componentSequence="36"><text x="723" y="322" style="font-size:10px;font-weight:none;stroke:none; fill:#333399" text-anchor="left" /></g><g componentSequence="37"><text x="799" y="197" style="font-size:10px;font-weight:none;stroke:none; fill:#333399" text-anchor="left" /></g><g componentSequence="38"><text x="735" y="548" style="font-size:10px;font-weight:none;stroke:none; fill:#333399" text-anchor="left" /></g><path style="fill:none; stroke:#000000;stroke-width:1" d="M157.0 131.0 L157.0 271.0" /><polygon style="fill:#000000; stroke:#000000;" points=" 162 261 157 271 152 261 157 263" /><path style="fill:none; stroke:#000000;stroke-width:1" d="M210.0 323.0 L412.0 321.0" /><polygon style="fill:#000000; stroke:#000000;" points=" 402 316 412 321 402 326 404 321" /><path style="fill:none; stroke:#000000;stroke-width:1" d="M389.0 167.0 L210.0 288.0" /><polygon style="fill:#000000; stroke:#000000;" points=" 221 287 210 288 215 278 217 284" /><path style="fill:none; stroke:#000000;stroke-width:1" d="M157.0 500.0 L157.0 376.0" /><polygon style="fill:#000000; stroke:#000000;" points=" 152 386 157 376 162 386 157 384" /><path style="fill:none; stroke:#000000;stroke-width:1" d="M443.0 262.0 L443.0 183.0" /><polygon style="fill:#000000; stroke:#000000;" points=" 438 193 443 183 448 193 443 191" /><path style="fill:none; stroke:#000000;stroke-width:1" d="M389.0 561.0 L187.0 559.0" /><polygon style="fill:#000000; stroke:#000000;" points=" 197 564 187 559 197 554 195 559" /><path style="fill:none; stroke:#000000;stroke-width:1" d="M443.0 380.0 L443.0 509.0" /><polygon style="fill:#000000; stroke:#000000;" points=" 448 499 443 509 438 499 443 501" /><path style="fill:none; stroke:#000000;stroke-width:1" d="M789.0 380.0 L789.0 545.0 L496.0 559.0" /><polygon style="fill:#000000; stroke:#000000;" points=" 506 564 496 559 506 554 504 559" /><path style="fill:none; stroke:#000000;stroke-width:1" d="M666.0 323.0 L759.0 322.0" /><polygon style="fill:#000000; stroke:#000000;" points=" 749 317 759 322 749 327 751 322" /><path style="fill:none; stroke:#000000;stroke-width:1" d="M187.0 543.0 L559.0 351.0" /><polygon style="fill:#000000; stroke:#000000;" points=" 548 351 559 351 552 360 552 355" /><path style="fill:none; stroke:#000000;stroke-width:1" d="M789.0 262.0 L789.0 130.0" /><polygon style="fill:#000000; stroke:#000000;" points=" 784 140 789 130 794 140 789 138" /><defs><linearGradient xmlns:xlink="http://www.w3.org/1999/xlink" xlink:href="#linearGradient66FF6696FF96B6FFB6" id="linearGradient66FF6696FF96B6FFB6_1810322897" x1="0" y1="96.0" x2="0" y2="131.0" gradientUnits="userSpaceOnUse" xlink:type="simple" xlink:actuate="onLoad" xlink:show="other" /><linearGradient id="linearGradient66FF6696FF96B6FFB6"><stop style="stop-color:#66FF66;stop-opacity:1;" offset="0.0" id="stop66FF66" /><stop style="stop-color:#96FF96;stop-opacity:1;" offset="0.5" id="stop96FF96" /><stop style="stop-color:#B6FFB6;stop-opacity:1;" offset="1.0" id="stopB6FFB6" /></linearGradient><linearGradient xmlns:xlink="http://www.w3.org/1999/xlink" xlink:href="#linearGradientF8FBFEEDF5FCDEEDFAD4E7F8E2E5E9" id="linearGradientF8FBFEEDF5FCDEEDFAD4E7F8E2E5E9_1696642781" x1="0" y1="272.0" x2="0" y2="378.0" gradientUnits="userSpaceOnUse" xlink:type="simple" xlink:actuate="onLoad" xlink:show="other" /><linearGradient id="linearGradientF8FBFEEDF5FCDEEDFAD4E7F8E2E5E9"><stop style="stop-color:#F8FBFE;stop-opacity:1;" offset="0.0" id="stopF8FBFE" /><stop style="stop-color:#EDF5FC;stop-opacity:1;" offset="0.25" id="stopEDF5FC" /><stop style="stop-color:#DEEDFA;stop-opacity:1;" offset="0.5" id="stopDEEDFA" /><stop style="stop-color:#D4E7F8;stop-opacity:1;" offset="0.75" id="stopD4E7F8" /><stop style="stop-color:#E2E5E9;stop-opacity:1;" offset="1.0" id="stopE2E5E9" /></linearGradient><linearGradient xmlns:xlink="http://www.w3.org/1999/xlink" xlink:href="#linearGradientF8FBFEEDF5FCDEEDFAD4E7F8E2E5E9" id="linearGradientF8FBFEEDF5FCDEEDFAD4E7F8E2E5E9_1629437601" x1="0" y1="79.0" x2="0" y2="185.0" gradientUnits="userSpaceOnUse" xlink:type="simple" xlink:actuate="onLoad" xlink:show="other" /><linearGradient xmlns:xlink="http://www.w3.org/1999/xlink" xlink:href="#linearGradientF8FBFEEDF5FCDEEDFAD4E7F8E2E5E9" id="linearGradientF8FBFEEDF5FCDEEDFAD4E7F8E2E5E9_605928678" x1="0" y1="510.0" x2="0" y2="616.0" gradientUnits="userSpaceOnUse" xlink:type="simple" xlink:actuate="onLoad" xlink:show="other" /><linearGradient xmlns:xlink="http://www.w3.org/1999/xlink" xlink:href="#linearGradientF8FBFEEDF5FCDEEDFAD4E7F8E2E5E9" id="linearGradientF8FBFEEDF5FCDEEDFAD4E7F8E2E5E9_1971661929" x1="0" y1="272.0" x2="0" y2="378.0" gradientUnits="userSpaceOnUse" xlink:type="simple" xlink:actuate="onLoad" xlink:show="other" /><linearGradient xmlns:xlink="http://www.w3.org/1999/xlink" xlink:href="#linearGradientFF6666FF9696FFB6B6" id="linearGradientFF6666FF9696FFB6B6_359922266" x1="0" y1="96.0" x2="0" y2="131.0" gradientUnits="userSpaceOnUse" xlink:type="simple" xlink:actuate="onLoad" xlink:show="other" /><linearGradient id="linearGradientFF6666FF9696FFB6B6"><stop style="stop-color:#FF6666;stop-opacity:1;" offset="0.0" id="stopFF6666" /><stop style="stop-color:#FF9696;stop-opacity:1;" offset="0.5" id="stopFF9696" /><stop style="stop-color:#FFB6B6;stop-opacity:1;" offset="1.0" id="stopFFB6B6" /></linearGradient><linearGradient xmlns:xlink="http://www.w3.org/1999/xlink" xlink:href="#linearGradientFAFBFCFFFFCC" id="linearGradientFAFBFCFFFFCC_218182755" x1="0" y1="263.0" x2="0" y2="323.0" gradientUnits="userSpaceOnUse" xlink:type="simple" xlink:actuate="onLoad" xlink:show="other" /><linearGradient id="linearGradientFAFBFCFFFFCC"><stop style="stop-color:#FAFBFC;stop-opacity:1;" offset="0.0" id="stopFAFBFC" /><stop style="stop-color:#FFFFCC;stop-opacity:1;" offset="1.0" id="stopFFFFCC" /></linearGradient><linearGradient xmlns:xlink="http://www.w3.org/1999/xlink" xlink:href="#linearGradientFAFBFCFFFFCC" id="linearGradientFAFBFCFFFFCC_1144144809" x1="0" y1="501.0" x2="0" y2="561.0" gradientUnits="userSpaceOnUse" xlink:type="simple" xlink:actuate="onLoad" xlink:show="other" /><linearGradient xmlns:xlink="http://www.w3.org/1999/xlink" xlink:href="#linearGradientFAFBFCFFFFCC" id="linearGradientFAFBFCFFFFCC_403233058" x1="0" y1="263.0" x2="0" y2="323.0" gradientUnits="userSpaceOnUse" xlink:type="simple" xlink:actuate="onLoad" xlink:show="other" /></defs></svg>
