<?xml version="1.0" encoding="UTF-8"?>
<svg xmlns="http://www.w3.org/2000/svg" style="stroke-dasharray:none; shape-rendering:auto; font-family:'Arial'; text-rendering:auto; fill-opacity:1; color-interpolation:auto; color-rendering:auto; font-size:12; fill:black; stroke:black; image-rendering:auto; stroke-miterlimit:10; stroke-linecap:square; stroke-linejoin:miter; font-style:normal; stroke-width:1; stroke-dashoffset:0; font-weight:normal; stroke-opacity:1;" contentScriptType="text/ecmascript" preserveAspectRatio="xMidYMid meet" zoomAndPan="magnify" version="1.0" contentStyleType="text/css" xml:xlink="http://www.w3.org/1999/xlink" width="1188" height="763"><rect x="0" y="560" width="1041" height="121" ry="0" rx="0" style="stroke:#000000; fill:#D8E2E2" /><g componentSequence="2"><text x="-620" y="570" transform="rotate(270)" text-anchor="middle" style="font-weight:bold;font-size:10px;stroke:none; fill:#434343"><tspan dy="14" x="-620">Área Contas</tspan><tspan dy="14" x="-620">a...</tspan></text></g><rect x="0" y="20" width="1041" height="203" ry="0" rx="0" style="stroke:#000000; fill:#DDEEFF" /><g componentSequence="6"><text x="-121" y="9" transform="rotate(270)" text-anchor="middle" style="font-weight:bold;font-size:10px;stroke:none; fill:#434343"><tspan dy="14" x="-121">Solicitante</tspan></text></g><rect x="0" y="450" width="1041" height="112" ry="0" rx="0" style="stroke:#000000; fill:#DFDFDF" /><g componentSequence="5"><text x="-506" y="9" transform="rotate(270)" text-anchor="middle" style="font-weight:bold;font-size:10px;stroke:none; fill:#434343"><tspan dy="14" x="-506">Gestor Cont...</tspan></text></g><rect x="0" y="679" width="1041" height="82" ry="0" rx="0" style="stroke:#000000; fill:#DFDFDF" /><g componentSequence="4"><text x="-720" y="689" transform="rotate(270)" text-anchor="middle" style="font-weight:bold;font-size:10px;stroke:none; fill:#434343"><tspan dy="14" x="-720">Finalizaç.</tspan><tspan dy="14" x="-720">..</tspan></text></g><rect x="0" y="221" width="1041" height="121" ry="0" rx="0" style="stroke:#000000; fill:#E5E5E5" /><g componentSequence="1"><text x="-281" y="231" transform="rotate(270)" text-anchor="middle" style="font-weight:bold;font-size:10px;stroke:none; fill:#434343"><tspan dy="14" x="-281">HIERARQUIA</tspan><tspan dy="14" x="-281">...</tspan></text></g><rect x="0" y="341" width="1041" height="110" ry="0" rx="0" style="stroke:#000000; fill:#E4EEEF" /><g componentSequence="3"><text x="-396" y="9" transform="rotate(270)" text-anchor="middle" style="font-weight:bold;font-size:10px;stroke:none; fill:#434343"><tspan dy="14" x="-396">Fiscal</tspan></text></g><g sequence="1"><ellipse cx="77" cy="123" rx="17" ry="17" stroke-width="1" style="fill:url(#linearGradient66FF6696FF96B6FFB6_492948544);" stroke="336633" /></g><g sequence="2"><polygon points=" 172 370 202 340 232 370 202 400 172 370" style="fill:url(#linearGradientFAFBFCFFFFCC_329658780);" stroke="000000" /></g><g componentSequence="2"><text x="202" y="410" text-anchor="middle" style="font-weight:bold;font-size:10px;stroke:none; fill:#333399"><tspan dy="14" x="202">2-</tspan><tspan dy="14" x="202">Verifi..</tspan><tspan dy="14" x="202">.</tspan></text></g><g sequence="5"><rect x="680" y="580" width="106" height="104" ry="5" rx="5" style="fill:url(#linearGradientF8FBFEEDF5FCDEEDFAD4E7F8E2E5E9_395945776);" stroke="191970" /></g><g componentSequence="5"><text x="733" y="595" text-anchor="middle" style="font-weight:bold;font-size:10px;stroke:none; fill:#333399"><tspan dy="14" x="733">5-Valida</tspan><tspan dy="14" x="733">dados/Ger</tspan><tspan dy="14" x="733">a titulo</tspan></text></g><g sequence="6"><rect x="527" y="89" width="106" height="85" ry="5" rx="5" style="fill:url(#linearGradientF8FBFEEDF5FCDEEDFAD4E7F8E2E5E9_1385905063);" stroke="191970" /></g><g componentSequence="6"><text x="580" y="104" text-anchor="middle" style="font-weight:bold;font-size:10px;stroke:none; fill:#333399"><tspan dy="14" x="580">6-Corrigir</tspan><tspan dy="14" x="580">solicitacao</tspan></text></g><g sequence="7"><ellipse cx="579" cy="720" rx="17" ry="17" stroke-width="3" style="fill:url(#linearGradientFF6666FF9696FFB6B6_1099689592);" stroke="993333" /></g><g sequence="43"><polygon points=" 550 377 580 347 610 377 580 407 550 377" style="fill:url(#linearGradientFAFBFCFFFFCC_1661144324);" stroke="000000" /></g><g componentSequence="43"><text x="580" y="417" text-anchor="middle" style="font-weight:bold;font-size:10px;stroke:none; fill:#333399"><tspan dy="14" x="580">43-</tspan><tspan dy="14" x="580">Item é</tspan><tspan dy="14" x="580">PA?</tspan></text></g><g sequence="55"><rect x="710" y="363" width="106" height="123" ry="5" rx="5" style="fill:url(#linearGradientF8FBFEEDF5FCDEEDFAD4E7F8E2E5E9_972654195);" stroke="191970" /></g><g componentSequence="55"><text x="763" y="378" text-anchor="middle" style="font-weight:bold;font-size:10px;stroke:none; fill:#333399"><tspan dy="14" x="763">55-</tspan><tspan dy="14" x="763">Aprovacao</tspan><tspan dy="14" x="763">Area Fiscal</tspan></text></g><g sequence="96"><ellipse cx="202" cy="720" rx="17" ry="17" stroke-width="3" style="fill:url(#linearGradientFF6666FF9696FFB6B6_850707688);" stroke="993333" /></g><g sequence="133"><polygon points=" 550 594 580 564 610 594 580 624 550 594" style="fill:url(#linearGradientFAFBFCFFFFCC_751965416);" stroke="000000" /></g><g componentSequence="133"><text x="580" y="634" text-anchor="middle" style="font-weight:bold;font-size:10px;stroke:none; fill:#333399"><tspan dy="14" x="580">133-</tspan><tspan dy="14" x="580">Decis</tspan><tspan dy="14" x="580">...</tspan></text></g><g sequence="142"><rect x="780" y="466" width="106" height="142" ry="5" rx="5" style="fill:url(#linearGradientF8FBFEEDF5FCDEEDFAD4E7F8E2E5E9_1472350043);" stroke="191970" /></g><g componentSequence="142"><text x="833" y="481" text-anchor="middle" style="font-weight:bold;font-size:10px;stroke:none; fill:#333399"><tspan dy="14" x="833">142-</tspan><tspan dy="14" x="833">Aprovacao</tspan><tspan dy="14" x="833">Gestor</tspan><tspan dy="14" x="833">Contas a</tspan><tspan dy="14" x="833">Pagar</tspan></text></g><g sequence="155"><rect x="527" y="241" width="106" height="123" ry="5" rx="5" style="fill:url(#linearGradientF8FBFEEDF5FCDEEDFAD4E7F8E2E5E9_587041230);" stroke="191970" /></g><g componentSequence="155"><text x="580" y="256" text-anchor="middle" style="font-weight:bold;font-size:10px;stroke:none; fill:#333399"><tspan dy="14" x="580">155-</tspan><tspan dy="14" x="580">Aprovação</tspan><tspan dy="14" x="580">Gestor-</tspan><tspan dy="14" x="580">Hierarquia</tspan></text></g><g sequence="173"><rect x="149" y="82" width="106" height="142" ry="5" rx="5" style="fill:url(#linearGradientF8FBFEEDF5FCDEEDFAD4E7F8E2E5E9_922393341);" stroke="191970" /></g><g componentSequence="173"><text x="202" y="97" text-anchor="middle" style="font-weight:bold;font-size:10px;stroke:none; fill:#333399"><tspan dy="14" x="202">173-Autom.</tspan><tspan dy="14" x="202">Cust.</tspan><tspan dy="14" x="202">Validar</tspan><tspan dy="14" x="202">Anexos</tspan></text></g><g sequence="177"><rect x="350" y="160" width="106" height="142" ry="5" rx="5" style="fill:url(#linearGradientF8FBFEEDF5FCDEEDFAD4E7F8E2E5E9_179547550);" stroke="191970" /></g><g componentSequence="177"><text x="403" y="175" text-anchor="middle" style="font-weight:bold;font-size:10px;stroke:none; fill:#333399"><tspan dy="14" x="403">177-Autom.</tspan><tspan dy="14" x="403">Cust.</tspan><tspan dy="14" x="403">Validar</tspan><tspan dy="14" x="403">Gestor</tspan></text></g><g sequence="244"><polygon points=" 172 230 202 200 232 230 202 260 172 230" style="fill:url(#linearGradientFAFBFCFFFFCC_1334762252);" stroke="000000" /></g><g componentSequence="244"><text x="202" y="270" text-anchor="middle" style="font-weight:bold;font-size:10px;stroke:none; fill:#333399"><tspan dy="14" x="202">É</tspan><tspan dy="14" x="202">PA?</tspan></text></g><g sequence="247"><rect x="40" y="255" width="106" height="66" ry="5" rx="5" style="fill:url(#linearGradientF8FBFEEDF5FCDEEDFAD4E7F8E2E5E9_32741578);" stroke="191970" /></g><g componentSequence="247"><text x="93" y="277" text-anchor="middle" style="font-weight:bold;font-size:10px;stroke:none; fill:#333399"><tspan dy="14" x="93">Validar PA</tspan></text></g><rect x="430" y="693" width="105" height="55" ry="5" rx="5" style="stroke:none; fill:#FFFFE0" /><g componentSequence="20"><text x="440" y="706" text-anchor="left" style="font-weight:bold;font-size:10px;stroke:none; fill:#000000"><tspan dy="14" x="440">Fim</tspan></text></g><path style="fill:none; stroke-width:1; stroke:#000000;" d="M450.0 693.0 L430.0 693.0 L430.0 748.0 L450.0 748.0" /><rect x="50" y="693" width="105" height="70" ry="5" rx="5" style="stroke:none; fill:#FFFFE0" /><g componentSequence="80"><text x="60" y="716" text-anchor="left" style="font-weight:bold;font-size:10px;stroke:none; fill:#000000"><tspan dy="14" x="60">Reprovad</tspan><tspan dy="14" x="60">o</tspan></text></g><path style="fill:none; stroke-width:1; stroke:#000000;" d="M70.0 693.0 L50.0 693.0 L50.0 763.0 L70.0 763.0" /><rect x="10" y="10" width="105" height="108" ry="5" rx="5" style="stroke:none; fill:#FFFFE0" /><g componentSequence="118"><text x="20" y="33" text-anchor="left" style="font-weight:bold;font-size:10px;stroke:none; fill:#000000"><tspan dy="14" x="20">Iniciar</tspan><tspan dy="14" x="20">Solicitacao</tspan><tspan dy="14" x="20">Pagament</tspan><tspan dy="14" x="20">o</tspan></text></g><path style="fill:none; stroke-width:1; stroke:#000000;" d="M30.0 10.0 L10.0 10.0 L10.0 118.0 L30.0 118.0" /><g componentSequence="128"><text x="395" y="572" style="font-size:10px;font-weight:none;stroke:none; fill:#333399" text-anchor="left"><tspan dy="14" x="395">para 96-Reprovado</tspan></text></g><g componentSequence="136"><text x="395" y="678" style="font-size:10px;font-weight:none;stroke:none; fill:#333399" text-anchor="left"><tspan dy="14" x="395">para 96-Reprovado</tspan></text></g><g componentSequence="138"><text x="979" y="433" style="font-size:10px;font-weight:none;stroke:none; fill:#333399" text-anchor="left"><tspan dy="14" x="979">para 6-Corrigir</tspan><tspan dy="14" x="979">solicitacao</tspan></text></g><g componentSequence="139"><text x="589" y="701" style="font-size:10px;font-weight:none;stroke:none; fill:#333399" text-anchor="left"><tspan dy="14" x="589">para 7-Fim</tspan></text></g><g componentSequence="162"><text x="655" y="642" style="font-size:10px;font-weight:none;stroke:none; fill:#333399" text-anchor="left"><tspan dy="14" x="655">para 5-Valida</tspan><tspan dy="14" x="655">dados/Gera titulo</tspan></text></g><g componentSequence="167"><text x="655" y="642" style="font-size:10px;font-weight:none;stroke:none; fill:#333399" text-anchor="left"><tspan dy="14" x="655">para 133-Decisao</tspan><tspan dy="14" x="655">Area Contas a</tspan><tspan dy="14" x="655">Pagar</tspan></text></g><g componentSequence="193"><text x="132" y="144" style="font-size:10px;font-weight:none;stroke:none; fill:#333399" text-anchor="left"><tspan dy="14" x="132">para 173-Autom.</tspan><tspan dy="14" x="132">Cust. Validar</tspan><tspan dy="14" x="132">Anexos</tspan></text></g><g componentSequence="196"><text x="301" y="340" style="font-size:10px;font-weight:none;stroke:none; fill:#333399" text-anchor="left"><tspan dy="14" x="301">para 177-Autom.</tspan><tspan dy="14" x="301">Cust. Validar</tspan><tspan dy="14" x="301">Gestor</tspan></text></g><g componentSequence="197"><text x="501" y="276" style="font-size:10px;font-weight:none;stroke:none; fill:#333399" text-anchor="left"><tspan dy="14" x="501">para 155-Aprovação</tspan><tspan dy="14" x="501">Gestor-Hierarquia</tspan></text></g><g componentSequence="200"><text x="401" y="152" style="font-size:10px;font-weight:none;stroke:none; fill:#333399" text-anchor="left"><tspan dy="14" x="401">para 173-Autom.</tspan><tspan dy="14" x="401">Cust. Validar</tspan><tspan dy="14" x="401">Anexos</tspan></text></g><g componentSequence="201"><text x="748" y="246" style="font-size:10px;font-weight:none;stroke:none; fill:#333399" text-anchor="left"><tspan dy="14" x="748">para 6-Corrigir</tspan><tspan dy="14" x="748">solicitacao</tspan></text></g><g componentSequence="202"><text x="314" y="138" style="font-size:10px;font-weight:none;stroke:none; fill:#333399" text-anchor="left"><tspan dy="14" x="314">para 6-Corrigir</tspan><tspan dy="14" x="314">solicitacao</tspan></text></g><g componentSequence="217"><text x="590" y="533" style="font-size:10px;font-weight:none;stroke:none; fill:#333399" text-anchor="left"><tspan dy="14" x="590">para 133-Decisao</tspan><tspan dy="14" x="590">Area Contas a</tspan><tspan dy="14" x="590">Pagar</tspan></text></g><g componentSequence="218"><text x="670" y="429" style="font-size:10px;font-weight:none;stroke:none; fill:#333399" text-anchor="left"><tspan dy="14" x="670">para 55-Aprovacao</tspan><tspan dy="14" x="670">Area Fiscal</tspan></text></g><g componentSequence="219"><text x="670" y="419" style="font-size:10px;font-weight:none;stroke:none; fill:#333399" text-anchor="left"><tspan dy="14" x="670">para 43-Item é PA?</tspan></text></g><g componentSequence="220"><text x="705" y="470" style="font-size:10px;font-weight:none;stroke:none; fill:#333399" text-anchor="left"><tspan dy="14" x="705">para 43-Item é PA?</tspan></text></g><g componentSequence="221"><text x="705" y="480" style="font-size:10px;font-weight:none;stroke:none; fill:#333399" text-anchor="left"><tspan dy="14" x="705">para 142-Aprovacao</tspan><tspan dy="14" x="705">Gestor Contas a</tspan><tspan dy="14" x="705">Pagar</tspan></text></g><g componentSequence="232"><text x="389" y="358" style="font-size:10px;font-weight:none;stroke:none; fill:#333399" text-anchor="left"><tspan dy="14" x="389">Aprovar</tspan></text></g><g componentSequence="233"><text x="401" y="411" style="font-size:10px;font-weight:none;stroke:none; fill:#333399" text-anchor="left"><tspan dy="14" x="401">para 43-Item é PA?</tspan></text></g><g componentSequence="234"><text x="212" y="589" style="font-size:10px;font-weight:none;stroke:none; fill:#333399" text-anchor="left"><tspan dy="14" x="212">para 96-Reprovado</tspan></text></g><g componentSequence="235"><text x="301" y="340" style="font-size:10px;font-weight:none;stroke:none; fill:#333399" text-anchor="left"><tspan dy="14" x="301">para 2-Verifica</tspan><tspan dy="14" x="301">Alcada/Regra Areas</tspan></text></g><g componentSequence="237"><text x="486" y="454" style="font-size:10px;font-weight:none;stroke:none; fill:#333399" text-anchor="left" /></g><g componentSequence="238"><text x="590" y="217" style="font-size:10px;font-weight:none;stroke:none; fill:#333399" text-anchor="left"><tspan dy="14" x="590">para 6-Corrigir</tspan><tspan dy="14" x="590">solicitacao</tspan></text></g><g componentSequence="239"><text x="382" y="532" style="font-size:10px;font-weight:none;stroke:none; fill:#333399" text-anchor="left"><tspan dy="14" x="382">para 96-Reprovado</tspan></text></g><g componentSequence="240"><text x="475" y="581" style="font-size:10px;font-weight:none;stroke:none; fill:#333399" text-anchor="left" /></g><g componentSequence="241"><text x="773" y="178" style="font-size:10px;font-weight:none;stroke:none; fill:#333399" text-anchor="left" /></g><g componentSequence="242"><text x="498" y="579" style="font-size:10px;font-weight:none;stroke:none; fill:#333399" text-anchor="left" /></g><g componentSequence="243"><text x="843" y="194" style="font-size:10px;font-weight:none;stroke:none; fill:#333399" text-anchor="left" /></g><g componentSequence="245"><text x="212" y="212" style="font-size:10px;font-weight:none;stroke:none; fill:#333399" text-anchor="left" /></g><g componentSequence="246"><text x="212" y="328" style="font-size:10px;font-weight:none;stroke:none; fill:#333399" text-anchor="left" /></g><g componentSequence="248"><text x="169" y="270" style="font-size:10px;font-weight:none;stroke:none; fill:#333399" text-anchor="left" /></g><g componentSequence="249"><text x="157" y="348" style="font-size:10px;font-weight:none;stroke:none; fill:#333399" text-anchor="left" /></g><g componentSequence="250"><text x="273" y="45" style="font-size:10px;font-weight:none;stroke:none; fill:#333399" text-anchor="left" /></g><g componentSequence="251"><text x="389" y="358" style="font-size:10px;font-weight:none;stroke:none; fill:#333399" text-anchor="left" /></g><g componentSequence="21"><text x="558" y="720" style="font-size:10px;font-weight:none;stroke:none; fill:#333399" text-anchor="left" /></g><g componentSequence="101"><text x="180" y="723" style="font-size:10px;font-weight:none;stroke:none; fill:#333399" text-anchor="left" /></g><g componentSequence="119"><text x="85" y="112" style="font-size:10px;font-weight:none;stroke:none; fill:#333399" text-anchor="left" /></g><path style="fill:none; stroke:#F00000;stroke-width:1" d="M94.0 127.0 L148.0 140.0" /><polygon style="fill:#F00000; stroke:#F00000;" points=" 139 133 148 140 137 143 140 138" /><polygon style="fill:#F00000; stroke:#F00000;" points=" 103 134 94 127 105 124 102 129" /><path style="fill:none; stroke:#000000;stroke-dasharray:2" d="M76.0 118.0 L73.0 106.0" /><path style="fill:none; stroke:#000000;stroke-width:1" d="M232.0 381.0 L349.0 278.0" /><polygon style="fill:#000000; stroke:#000000;" points=" 338 281 349 278 345 288 343 283" /><path style="fill:none; stroke:#000000;stroke-width:1" d="M227.0 339.0 L306.0 123.0 L526.0 129.0" /><polygon style="fill:#000000; stroke:#000000;" points=" 516 124 526 129 516 134 518 129" /><path style="fill:none; stroke:#000000;stroke-width:1" d="M232.0 408.0 L549.0 414.0" /><polygon style="fill:#000000; stroke:#000000;" points=" 539 409 549 414 539 419 541 414" /><path style="fill:none; stroke:#000000;stroke-width:1" d="M202.0 476.0 L202.0 702.0" /><polygon style="fill:#000000; stroke:#000000;" points=" 207 692 202 702 197 692 202 694" /><path style="fill:none; stroke:#000000;stroke-width:1" d="M232.0 413.0 L529.0 463.0 L679.0 587.0" /><polygon style="fill:#000000; stroke:#000000;" points=" 674 577 679 587 668 584 673 582" /><path style="fill:none; stroke:#000000;stroke-width:1" d="M526.0 317.0 L232.0 399.0" /><polygon style="fill:#000000; stroke:#000000;" points=" 243 401 232 399 240 391 240 397" /><path style="fill:none; stroke:#000000;stroke-width:1" d="M349.0 278.0 L232.0 381.0" /><polygon style="fill:#000000; stroke:#000000;" points=" 243 378 232 381 236 371 238 376" /><path style="fill:none; stroke:#000000;stroke-width:1" d="M202.0 317.0 L202.0 339.0" /><polygon style="fill:#000000; stroke:#000000;" points=" 207 329 202 339 197 329 202 331" /><path style="fill:none; stroke:#000000;stroke-width:1" d="M123.0 321.0 L171.0 374.0" /><polygon style="fill:#000000; stroke:#000000;" points=" 168 363 171 374 161 370 166 368" /><path style="fill:none; stroke:#009600;stroke-width:1" d="M526.0 317.0 L232.0 399.0" /><polygon style="fill:#009600; stroke:#009600;" points=" 243 401 232 399 240 391 240 397" /><path style="fill:none; stroke:#000000;stroke-width:1" d="M679.0 632.0 L610.0 632.0" /><polygon style="fill:#000000; stroke:#000000;" points=" 620 637 610 632 620 627 618 632" /><path style="fill:none; stroke:#000000;stroke-width:1" d="M610.0 632.0 L679.0 632.0" /><polygon style="fill:#000000; stroke:#000000;" points=" 669 627 679 632 669 637 671 632" /><path style="fill:none; stroke:#000000;stroke-width:1" d="M526.0 134.0 L255.0 149.0" /><polygon style="fill:#000000; stroke:#000000;" points=" 265 153 255 149 265 143 263 149" /><path style="fill:none; stroke:#000000;stroke-width:1" d="M610.0 651.0 L666.0 688.0 L969.0 688.0 L969.0 124.0 L633.0 130.0" /><polygon style="fill:#000000; stroke:#000000;" points=" 643 135 633 130 643 125 641 130" /><path style="fill:none; stroke:#000000;stroke-width:1" d="M610.0 391.0 L738.0 292.0 L738.0 124.0 L633.0 129.0" /><polygon style="fill:#000000; stroke:#000000;" points=" 643 134 633 129 643 124 641 129" /><path style="fill:none; stroke:#000000;stroke-width:1" d="M580.0 240.0 L580.0 174.0" /><polygon style="fill:#000000; stroke:#000000;" points=" 575 184 580 174 585 184 580 182" /><path style="fill:none; stroke:#000000;stroke-width:1" d="M763.0 362.0 L763.0 124.0 L633.0 129.0" /><polygon style="fill:#000000; stroke:#000000;" points=" 643 134 633 129 643 124 641 129" /><path style="fill:none; stroke:#000000;stroke-width:1" d="M833.0 465.0 L833.0 124.0 L633.0 130.0" /><polygon style="fill:#000000; stroke:#000000;" points=" 643 135 633 130 643 125 641 130" /><path style="fill:none; stroke:#000000;stroke-width:1" d="M99.0 254.0 L108.0 204.0 L108.0 45.0 L584.0 45.0 L582.0 88.0" /><polygon style="fill:#000000; stroke:#000000;" points=" 587 78 582 88 577 78 582 80" /><path style="fill:none; stroke:#000000;stroke-width:1" d="M579.0 700.0 L579.0 703.0" /><polygon style="fill:#000000; stroke:#000000;" points=" 584 693 579 703 574 693 579 695" /><path style="fill:none; stroke:#000000;stroke-dasharray:2" d="M535.0 720.0 L561.0 720.0" /><path style="fill:none; stroke:#000000;stroke-width:1" d="M549.0 439.0 L216.0 709.0" /><polygon style="fill:#000000; stroke:#000000;" points=" 227 707 216 709 221 699 222 704" /><path style="fill:none; stroke:#000000;stroke-width:1" d="M580.0 483.0 L580.0 563.0" /><polygon style="fill:#000000; stroke:#000000;" points=" 585 553 580 563 575 553 580 555" /><path style="fill:none; stroke:#000000;stroke-width:1" d="M610.0 416.0 L709.0 421.0" /><polygon style="fill:#000000; stroke:#000000;" points=" 699 416 709 421 699 425 701 421" /><path style="fill:none; stroke:#000000;stroke-width:1" d="M610.0 429.0 L779.0 511.0" /><polygon style="fill:#000000; stroke:#000000;" points=" 772 502 779 511 768 511 772 508" /><path style="fill:none; stroke:#000000;stroke-width:1" d="M709.0 421.0 L610.0 416.0" /><polygon style="fill:#000000; stroke:#000000;" points=" 620 421 610 416 620 412 618 416" /><path style="fill:none; stroke:#000000;stroke-width:1" d="M779.0 511.0 L610.0 429.0" /><polygon style="fill:#000000; stroke:#000000;" points=" 617 438 610 429 621 429 617 432" /><path style="fill:none; stroke:#000000;stroke-width:1" d="M709.0 452.0 L217.0 712.0" /><polygon style="fill:#000000; stroke:#000000;" points=" 228 712 217 712 224 703 224 708" /><path style="fill:none; stroke:#000000;stroke-width:1" d="M549.0 639.0 L219.0 716.0" /><polygon style="fill:#000000; stroke:#000000;" points=" 230 719 219 716 228 709 227 714" /><path style="fill:none; stroke:#000000;stroke-width:1" d="M526.0 361.0 L214.0 707.0" /><polygon style="fill:#000000; stroke:#000000;" points=" 224 703 214 707 217 696 219 701" /><path style="fill:none; stroke:#000000;stroke-width:1" d="M779.0 538.0 L558.0 544.0 L218.0 713.0" /><polygon style="fill:#000000; stroke:#000000;" points=" 229 713 218 713 225 704 225 709" /><path style="fill:none; stroke:#000000;stroke-dasharray:2" d="M155.0 724.0 L185.0 721.0" /><path style="fill:none; stroke:#000000;stroke-width:1" d="M456.0 252.0 L526.0 280.0" /><polygon style="fill:#000000; stroke:#000000;" points=" 519 272 526 280 515 281 519 277" /><path style="fill:none; stroke:#000000;stroke-width:1" d="M202.0 224.0 L202.0 199.0" /><polygon style="fill:#000000; stroke:#000000;" points=" 197 209 202 199 207 209 202 207" /><path style="fill:none; stroke:#000000;stroke-width:1" d="M171.0 266.0 L146.0 273.0" /><polygon style="fill:#000000; stroke:#000000;" points=" 157 275 146 273 154 265 154 271" /><defs><linearGradient xmlns:xlink="http://www.w3.org/1999/xlink" xlink:href="#linearGradient66FF6696FF96B6FFB6" id="linearGradient66FF6696FF96B6FFB6_492948544" x1="0" y1="106.0" x2="0" y2="141.0" gradientUnits="userSpaceOnUse" xlink:type="simple" xlink:actuate="onLoad" xlink:show="other" /><linearGradient id="linearGradient66FF6696FF96B6FFB6"><stop style="stop-color:#66FF66;stop-opacity:1;" offset="0.0" id="stop66FF66" /><stop style="stop-color:#96FF96;stop-opacity:1;" offset="0.5" id="stop96FF96" /><stop style="stop-color:#B6FFB6;stop-opacity:1;" offset="1.0" id="stopB6FFB6" /></linearGradient><linearGradient xmlns:xlink="http://www.w3.org/1999/xlink" xlink:href="#linearGradientFAFBFCFFFFCC" id="linearGradientFAFBFCFFFFCC_329658780" x1="0" y1="340.0" x2="0" y2="400.0" gradientUnits="userSpaceOnUse" xlink:type="simple" xlink:actuate="onLoad" xlink:show="other" /><linearGradient id="linearGradientFAFBFCFFFFCC"><stop style="stop-color:#FAFBFC;stop-opacity:1;" offset="0.0" id="stopFAFBFC" /><stop style="stop-color:#FFFFCC;stop-opacity:1;" offset="1.0" id="stopFFFFCC" /></linearGradient><linearGradient xmlns:xlink="http://www.w3.org/1999/xlink" xlink:href="#linearGradientF8FBFEEDF5FCDEEDFAD4E7F8E2E5E9" id="linearGradientF8FBFEEDF5FCDEEDFAD4E7F8E2E5E9_395945776" x1="0" y1="580.0" x2="0" y2="686.0" gradientUnits="userSpaceOnUse" xlink:type="simple" xlink:actuate="onLoad" xlink:show="other" /><linearGradient id="linearGradientF8FBFEEDF5FCDEEDFAD4E7F8E2E5E9"><stop style="stop-color:#F8FBFE;stop-opacity:1;" offset="0.0" id="stopF8FBFE" /><stop style="stop-color:#EDF5FC;stop-opacity:1;" offset="0.25" id="stopEDF5FC" /><stop style="stop-color:#DEEDFA;stop-opacity:1;" offset="0.5" id="stopDEEDFA" /><stop style="stop-color:#D4E7F8;stop-opacity:1;" offset="0.75" id="stopD4E7F8" /><stop style="stop-color:#E2E5E9;stop-opacity:1;" offset="1.0" id="stopE2E5E9" /></linearGradient><linearGradient xmlns:xlink="http://www.w3.org/1999/xlink" xlink:href="#linearGradientF8FBFEEDF5FCDEEDFAD4E7F8E2E5E9" id="linearGradientF8FBFEEDF5FCDEEDFAD4E7F8E2E5E9_1385905063" x1="0" y1="89.0" x2="0" y2="195.0" gradientUnits="userSpaceOnUse" xlink:type="simple" xlink:actuate="onLoad" xlink:show="other" /><linearGradient xmlns:xlink="http://www.w3.org/1999/xlink" xlink:href="#linearGradientFF6666FF9696FFB6B6" id="linearGradientFF6666FF9696FFB6B6_1099689592" x1="0" y1="703.0" x2="0" y2="738.0" gradientUnits="userSpaceOnUse" xlink:type="simple" xlink:actuate="onLoad" xlink:show="other" /><linearGradient id="linearGradientFF6666FF9696FFB6B6"><stop style="stop-color:#FF6666;stop-opacity:1;" offset="0.0" id="stopFF6666" /><stop style="stop-color:#FF9696;stop-opacity:1;" offset="0.5" id="stopFF9696" /><stop style="stop-color:#FFB6B6;stop-opacity:1;" offset="1.0" id="stopFFB6B6" /></linearGradient><linearGradient xmlns:xlink="http://www.w3.org/1999/xlink" xlink:href="#linearGradientFAFBFCFFFFCC" id="linearGradientFAFBFCFFFFCC_1661144324" x1="0" y1="347.0" x2="0" y2="407.0" gradientUnits="userSpaceOnUse" xlink:type="simple" xlink:actuate="onLoad" xlink:show="other" /><linearGradient xmlns:xlink="http://www.w3.org/1999/xlink" xlink:href="#linearGradientF8FBFEEDF5FCDEEDFAD4E7F8E2E5E9" id="linearGradientF8FBFEEDF5FCDEEDFAD4E7F8E2E5E9_972654195" x1="0" y1="363.0" x2="0" y2="469.0" gradientUnits="userSpaceOnUse" xlink:type="simple" xlink:actuate="onLoad" xlink:show="other" /><linearGradient xmlns:xlink="http://www.w3.org/1999/xlink" xlink:href="#linearGradientFF6666FF9696FFB6B6" id="linearGradientFF6666FF9696FFB6B6_850707688" x1="0" y1="703.0" x2="0" y2="738.0" gradientUnits="userSpaceOnUse" xlink:type="simple" xlink:actuate="onLoad" xlink:show="other" /><linearGradient xmlns:xlink="http://www.w3.org/1999/xlink" xlink:href="#linearGradientFAFBFCFFFFCC" id="linearGradientFAFBFCFFFFCC_751965416" x1="0" y1="564.0" x2="0" y2="624.0" gradientUnits="userSpaceOnUse" xlink:type="simple" xlink:actuate="onLoad" xlink:show="other" /><linearGradient xmlns:xlink="http://www.w3.org/1999/xlink" xlink:href="#linearGradientF8FBFEEDF5FCDEEDFAD4E7F8E2E5E9" id="linearGradientF8FBFEEDF5FCDEEDFAD4E7F8E2E5E9_1472350043" x1="0" y1="466.0" x2="0" y2="572.0" gradientUnits="userSpaceOnUse" xlink:type="simple" xlink:actuate="onLoad" xlink:show="other" /><linearGradient xmlns:xlink="http://www.w3.org/1999/xlink" xlink:href="#linearGradientF8FBFEEDF5FCDEEDFAD4E7F8E2E5E9" id="linearGradientF8FBFEEDF5FCDEEDFAD4E7F8E2E5E9_587041230" x1="0" y1="241.0" x2="0" y2="347.0" gradientUnits="userSpaceOnUse" xlink:type="simple" xlink:actuate="onLoad" xlink:show="other" /><linearGradient xmlns:xlink="http://www.w3.org/1999/xlink" xlink:href="#linearGradientF8FBFEEDF5FCDEEDFAD4E7F8E2E5E9" id="linearGradientF8FBFEEDF5FCDEEDFAD4E7F8E2E5E9_922393341" x1="0" y1="82.0" x2="0" y2="188.0" gradientUnits="userSpaceOnUse" xlink:type="simple" xlink:actuate="onLoad" xlink:show="other" /><linearGradient xmlns:xlink="http://www.w3.org/1999/xlink" xlink:href="#linearGradientF8FBFEEDF5FCDEEDFAD4E7F8E2E5E9" id="linearGradientF8FBFEEDF5FCDEEDFAD4E7F8E2E5E9_179547550" x1="0" y1="160.0" x2="0" y2="266.0" gradientUnits="userSpaceOnUse" xlink:type="simple" xlink:actuate="onLoad" xlink:show="other" /><linearGradient xmlns:xlink="http://www.w3.org/1999/xlink" xlink:href="#linearGradientFAFBFCFFFFCC" id="linearGradientFAFBFCFFFFCC_1334762252" x1="0" y1="200.0" x2="0" y2="260.0" gradientUnits="userSpaceOnUse" xlink:type="simple" xlink:actuate="onLoad" xlink:show="other" /><linearGradient xmlns:xlink="http://www.w3.org/1999/xlink" xlink:href="#linearGradientF8FBFEEDF5FCDEEDFAD4E7F8E2E5E9" id="linearGradientF8FBFEEDF5FCDEEDFAD4E7F8E2E5E9_32741578" x1="0" y1="255.0" x2="0" y2="361.0" gradientUnits="userSpaceOnUse" xlink:type="simple" xlink:actuate="onLoad" xlink:show="other" /></defs></svg>
