<?xml version="1.0" encoding="UTF-8"?>
<svg xmlns="http://www.w3.org/2000/svg" style="stroke-dasharray:none; shape-rendering:auto; font-family:'Arial'; text-rendering:auto; fill-opacity:1; color-interpolation:auto; color-rendering:auto; font-size:12; fill:black; stroke:black; image-rendering:auto; stroke-miterlimit:10; stroke-linecap:square; stroke-linejoin:miter; font-style:normal; stroke-width:1; stroke-dashoffset:0; font-weight:normal; stroke-opacity:1;" contentScriptType="text/ecmascript" preserveAspectRatio="xMidYMid meet" zoomAndPan="magnify" version="1.0" contentStyleType="text/css" xml:xlink="http://www.w3.org/1999/xlink" width="861" height="621"><rect x="10" y="10" width="851" height="611" ry="0" rx="0" style="stroke:#000000; fill:#FFFFFF" /><rect x="40" y="416" width="821" height="205" ry="0" rx="0" style="stroke:#000000; fill:#82B0B7" /><g componentSequence="4"><text x="-518" y="49" transform="rotate(270)" text-anchor="middle" style="font-weight:bold;font-size:10px;stroke:none; fill:#434343"><tspan dy="14" x="-518">Fiscal</tspan></text></g><rect x="40" y="213" width="821" height="203" ry="0" rx="0" style="stroke:#000000; fill:#80FF80" /><g componentSequence="3"><text x="-314" y="49" transform="rotate(270)" text-anchor="middle" style="font-weight:bold;font-size:10px;stroke:none; fill:#434343"><tspan dy="14" x="-314">Contas a Pagar</tspan></text></g><rect x="40" y="10" width="821" height="203" ry="0" rx="0" style="stroke:#000000; fill:#FFFF80" /><g componentSequence="2"><text x="-111" y="49" transform="rotate(270)" text-anchor="middle" style="font-weight:bold;font-size:10px;stroke:none; fill:#434343"><tspan dy="14" x="-111">Solicitante</tspan></text></g><g componentSequence="1"><text x="-315" y="19" transform="rotate(270)" text-anchor="middle" style="font-weight:bold;font-size:10px;stroke:none; fill:#434343"><tspan dy="14" x="-315">Pool</tspan></text></g><g sequence="4"><ellipse cx="157" cy="93" rx="17" ry="17" stroke-width="1" style="fill:url(#linearGradient66FF6696FF96B6FFB6_1563431975);" stroke="336633" /></g><g sequence="12"><rect x="160" y="240" width="106" height="104" ry="5" rx="5" style="fill:url(#linearGradientF8FBFEEDF5FCDEEDFAD4E7F8E2E5E9_1408758257);" stroke="191970" /></g><g componentSequence="12"><text x="213" y="255" text-anchor="middle" style="font-weight:bold;font-size:10px;stroke:none; fill:#333399"><tspan dy="14" x="213">Confere</tspan><tspan dy="14" x="213">Informaçõe</tspan><tspan dy="14" x="213">s</tspan></text></g><g sequence="14"><rect x="430" y="42" width="106" height="104" ry="5" rx="5" style="fill:url(#linearGradientF8FBFEEDF5FCDEEDFAD4E7F8E2E5E9_1472757591);" stroke="191970" /></g><g componentSequence="14"><text x="483" y="57" text-anchor="middle" style="font-weight:bold;font-size:10px;stroke:none; fill:#333399"><tspan dy="14" x="483">Verifica</tspan><tspan dy="14" x="483">Inconsistên</tspan><tspan dy="14" x="483">cia</tspan></text></g><g sequence="17"><rect x="390" y="510" width="106" height="104" ry="5" rx="5" style="fill:url(#linearGradientF8FBFEEDF5FCDEEDFAD4E7F8E2E5E9_315292618);" stroke="191970" /></g><g componentSequence="17"><text x="443" y="525" text-anchor="middle" style="font-weight:bold;font-size:10px;stroke:none; fill:#333399"><tspan dy="14" x="443">Confere os</tspan><tspan dy="14" x="443">Dados</tspan><tspan dy="14" x="443">Fiscais</tspan></text></g><g sequence="20"><rect x="560" y="270" width="106" height="104" ry="5" rx="5" style="fill:url(#linearGradientF8FBFEEDF5FCDEEDFAD4E7F8E2E5E9_1325810840);" stroke="191970" /></g><g componentSequence="20"><text x="613" y="285" text-anchor="middle" style="font-weight:bold;font-size:10px;stroke:none; fill:#333399"><tspan dy="14" x="613">Processa</tspan><tspan dy="14" x="613">Pagamento</tspan></text></g><g sequence="22"><ellipse cx="727" cy="137" rx="17" ry="17" stroke-width="3" style="fill:url(#linearGradientFF6666FF9696FFB6B6_596790512);" stroke="993333" /></g><g sequence="24"><polygon points=" 410 293 440 263 470 293 440 323 410 293" style="fill:url(#linearGradientFAFBFCFFFFCC_934587666);" stroke="000000" /></g><g componentSequence="24"><text x="440" y="333" text-anchor="middle" style="font-weight:bold;font-size:10px;stroke:none; fill:#333399"><tspan dy="14" x="440">Decis</tspan><tspan dy="14" x="440">ão</tspan></text></g><g sequence="30"><polygon points=" 240 470 270 440 300 470 270 500 240 470" style="fill:url(#linearGradientFAFBFCFFFFCC_1927611525);" stroke="000000" /></g><g componentSequence="30"><text x="270" y="510" text-anchor="middle" style="font-weight:bold;font-size:10px;stroke:none; fill:#333399"><tspan dy="14" x="270">Decis</tspan><tspan dy="14" x="270">ão</tspan></text></g><g sequence="35"><polygon points=" 760 280 790 250 820 280 790 310 760 280" style="fill:url(#linearGradientFAFBFCFFFFCC_263896261);" stroke="000000" /></g><g componentSequence="35"><text x="790" y="320" text-anchor="middle" style="font-weight:bold;font-size:10px;stroke:none; fill:#333399"><tspan dy="14" x="790">Decis</tspan><tspan dy="14" x="790">ão</tspan></text></g><g componentSequence="25"><text x="348" y="308" style="font-size:10px;font-weight:none;stroke:none; fill:#333399" text-anchor="left" /></g><g componentSequence="27"><text x="451" y="445" style="font-size:10px;font-weight:none;stroke:none; fill:#333399" text-anchor="left" /></g><g componentSequence="28"><text x="472" y="204" style="font-size:10px;font-weight:none;stroke:none; fill:#333399" text-anchor="left" /></g><g componentSequence="29"><text x="358" y="193" style="font-size:10px;font-weight:none;stroke:none; fill:#333399" text-anchor="left" /></g><g componentSequence="31"><text x="355" y="526" style="font-size:10px;font-weight:none;stroke:none; fill:#333399" text-anchor="left" /></g><g componentSequence="32"><text x="250" y="392" style="font-size:10px;font-weight:none;stroke:none; fill:#333399" text-anchor="left" /></g><g componentSequence="33"><text x="440" y="416" style="font-size:10px;font-weight:none;stroke:none; fill:#333399" text-anchor="left" /></g><g componentSequence="34"><text x="190" y="175" style="font-size:10px;font-weight:none;stroke:none; fill:#333399" text-anchor="left" /></g><g componentSequence="36"><text x="723" y="314" style="font-size:10px;font-weight:none;stroke:none; fill:#333399" text-anchor="left" /></g><g componentSequence="37"><text x="761" y="202" style="font-size:10px;font-weight:none;stroke:none; fill:#333399" text-anchor="left" /></g><g componentSequence="38"><text x="638" y="426" style="font-size:10px;font-weight:none;stroke:none; fill:#333399" text-anchor="left" /></g><path style="fill:none; stroke:#000000;stroke-width:1" d="M161.0 110.0 L197.0 238.0" /><polygon style="fill:#000000; stroke:#000000;" points=" 199 227 197 238 189 230 195 230" /><path style="fill:none; stroke:#000000;stroke-width:1" d="M266.0 298.0 L408.0 317.0" /><polygon style="fill:#000000; stroke:#000000;" points=" 399 311 408 317 397 321 400 316" /><path style="fill:none; stroke:#000000;stroke-width:1" d="M428.0 132.0 L266.0 252.0" /><polygon style="fill:#000000; stroke:#000000;" points=" 277 250 266 252 271 242 272 247" /><path style="fill:none; stroke:#000000;stroke-width:1" d="M253.0 438.0 L227.0 344.0" /><polygon style="fill:#000000; stroke:#000000;" points=" 225 355 227 344 234 352 229 352" /><path style="fill:none; stroke:#000000;stroke-width:1" d="M450.0 262.0 L472.0 146.0" /><polygon style="fill:#000000; stroke:#000000;" points=" 465 155 472 146 475 157 471 154" /><path style="fill:none; stroke:#000000;stroke-width:1" d="M388.0 541.0 L300.0 509.0" /><polygon style="fill:#000000; stroke:#000000;" points=" 308 517 300 509 311 508 308 512" /><path style="fill:none; stroke:#000000;stroke-width:1" d="M440.0 380.0 L442.0 508.0" /><polygon style="fill:#000000; stroke:#000000;" points=" 447 498 442 508 437 498 442 500" /><path style="fill:none; stroke:#000000;stroke-width:1" d="M758.0 330.0 L496.0 522.0" /><polygon style="fill:#000000; stroke:#000000;" points=" 507 520 496 522 501 512 502 517" /><path style="fill:none; stroke:#000000;stroke-width:1" d="M666.0 317.0 L758.0 310.0" /><polygon style="fill:#000000; stroke:#000000;" points=" 748 306 758 310 748 316 750 311" /><path style="fill:none; stroke:#000000;stroke-width:1" d="M300.0 482.0 L558.0 349.0" /><polygon style="fill:#000000; stroke:#000000;" points=" 547 349 558 349 551 358 551 353" /><path style="fill:none; stroke:#000000;stroke-width:1" d="M767.0 248.0 L732.0 153.0" /><polygon style="fill:#000000; stroke:#000000;" points=" 731 164 732 153 740 161 735 161" /><defs><linearGradient xmlns:xlink="http://www.w3.org/1999/xlink" xlink:href="#linearGradient66FF6696FF96B6FFB6" id="linearGradient66FF6696FF96B6FFB6_1563431975" x1="0" y1="76.0" x2="0" y2="111.0" gradientUnits="userSpaceOnUse" xlink:type="simple" xlink:actuate="onLoad" xlink:show="other" /><linearGradient id="linearGradient66FF6696FF96B6FFB6"><stop style="stop-color:#66FF66;stop-opacity:1;" offset="0.0" id="stop66FF66" /><stop style="stop-color:#96FF96;stop-opacity:1;" offset="0.5" id="stop96FF96" /><stop style="stop-color:#B6FFB6;stop-opacity:1;" offset="1.0" id="stopB6FFB6" /></linearGradient><linearGradient xmlns:xlink="http://www.w3.org/1999/xlink" xlink:href="#linearGradientF8FBFEEDF5FCDEEDFAD4E7F8E2E5E9" id="linearGradientF8FBFEEDF5FCDEEDFAD4E7F8E2E5E9_1408758257" x1="0" y1="240.0" x2="0" y2="346.0" gradientUnits="userSpaceOnUse" xlink:type="simple" xlink:actuate="onLoad" xlink:show="other" /><linearGradient id="linearGradientF8FBFEEDF5FCDEEDFAD4E7F8E2E5E9"><stop style="stop-color:#F8FBFE;stop-opacity:1;" offset="0.0" id="stopF8FBFE" /><stop style="stop-color:#EDF5FC;stop-opacity:1;" offset="0.25" id="stopEDF5FC" /><stop style="stop-color:#DEEDFA;stop-opacity:1;" offset="0.5" id="stopDEEDFA" /><stop style="stop-color:#D4E7F8;stop-opacity:1;" offset="0.75" id="stopD4E7F8" /><stop style="stop-color:#E2E5E9;stop-opacity:1;" offset="1.0" id="stopE2E5E9" /></linearGradient><linearGradient xmlns:xlink="http://www.w3.org/1999/xlink" xlink:href="#linearGradientF8FBFEEDF5FCDEEDFAD4E7F8E2E5E9" id="linearGradientF8FBFEEDF5FCDEEDFAD4E7F8E2E5E9_1472757591" x1="0" y1="42.0" x2="0" y2="148.0" gradientUnits="userSpaceOnUse" xlink:type="simple" xlink:actuate="onLoad" xlink:show="other" /><linearGradient xmlns:xlink="http://www.w3.org/1999/xlink" xlink:href="#linearGradientF8FBFEEDF5FCDEEDFAD4E7F8E2E5E9" id="linearGradientF8FBFEEDF5FCDEEDFAD4E7F8E2E5E9_315292618" x1="0" y1="510.0" x2="0" y2="616.0" gradientUnits="userSpaceOnUse" xlink:type="simple" xlink:actuate="onLoad" xlink:show="other" /><linearGradient xmlns:xlink="http://www.w3.org/1999/xlink" xlink:href="#linearGradientF8FBFEEDF5FCDEEDFAD4E7F8E2E5E9" id="linearGradientF8FBFEEDF5FCDEEDFAD4E7F8E2E5E9_1325810840" x1="0" y1="270.0" x2="0" y2="376.0" gradientUnits="userSpaceOnUse" xlink:type="simple" xlink:actuate="onLoad" xlink:show="other" /><linearGradient xmlns:xlink="http://www.w3.org/1999/xlink" xlink:href="#linearGradientFF6666FF9696FFB6B6" id="linearGradientFF6666FF9696FFB6B6_596790512" x1="0" y1="120.0" x2="0" y2="155.0" gradientUnits="userSpaceOnUse" xlink:type="simple" xlink:actuate="onLoad" xlink:show="other" /><linearGradient id="linearGradientFF6666FF9696FFB6B6"><stop style="stop-color:#FF6666;stop-opacity:1;" offset="0.0" id="stopFF6666" /><stop style="stop-color:#FF9696;stop-opacity:1;" offset="0.5" id="stopFF9696" /><stop style="stop-color:#FFB6B6;stop-opacity:1;" offset="1.0" id="stopFFB6B6" /></linearGradient><linearGradient xmlns:xlink="http://www.w3.org/1999/xlink" xlink:href="#linearGradientFAFBFCFFFFCC" id="linearGradientFAFBFCFFFFCC_934587666" x1="0" y1="263.0" x2="0" y2="323.0" gradientUnits="userSpaceOnUse" xlink:type="simple" xlink:actuate="onLoad" xlink:show="other" /><linearGradient id="linearGradientFAFBFCFFFFCC"><stop style="stop-color:#FAFBFC;stop-opacity:1;" offset="0.0" id="stopFAFBFC" /><stop style="stop-color:#FFFFCC;stop-opacity:1;" offset="1.0" id="stopFFFFCC" /></linearGradient><linearGradient xmlns:xlink="http://www.w3.org/1999/xlink" xlink:href="#linearGradientFAFBFCFFFFCC" id="linearGradientFAFBFCFFFFCC_1927611525" x1="0" y1="440.0" x2="0" y2="500.0" gradientUnits="userSpaceOnUse" xlink:type="simple" xlink:actuate="onLoad" xlink:show="other" /><linearGradient xmlns:xlink="http://www.w3.org/1999/xlink" xlink:href="#linearGradientFAFBFCFFFFCC" id="linearGradientFAFBFCFFFFCC_263896261" x1="0" y1="250.0" x2="0" y2="310.0" gradientUnits="userSpaceOnUse" xlink:type="simple" xlink:actuate="onLoad" xlink:show="other" /></defs></svg>
