<?xml version="1.0" encoding="UTF-8"?>
<svg xmlns="http://www.w3.org/2000/svg" style="stroke-dasharray:none; shape-rendering:auto; font-family:'Arial'; text-rendering:auto; fill-opacity:1; color-interpolation:auto; color-rendering:auto; font-size:12; fill:black; stroke:black; image-rendering:auto; stroke-miterlimit:10; stroke-linecap:square; stroke-linejoin:miter; font-style:normal; stroke-width:1; stroke-dashoffset:0; font-weight:normal; stroke-opacity:1;" contentScriptType="text/ecmascript" preserveAspectRatio="xMidYMid meet" zoomAndPan="magnify" version="1.0" contentStyleType="text/css" xml:xlink="http://www.w3.org/1999/xlink" width="861" height="621"><rect x="10" y="10" width="851" height="611" ry="0" rx="0" style="stroke:#000000; fill:#FFFFFF" /><rect x="40" y="416" width="821" height="205" ry="0" rx="0" style="stroke:#000000; fill:#82B0B7" /><g componentSequence="4"><text x="-518" y="48" transform="rotate(270)" text-anchor="middle" style="font-weight:bold;font-size:10px;stroke:none; fill:#434343"><tspan dy="14" x="-518">Fiscal</tspan></text></g><rect x="40" y="213" width="821" height="203" ry="0" rx="0" style="stroke:#000000; fill:#80FF80" /><g componentSequence="3"><text x="-314" y="48" transform="rotate(270)" text-anchor="middle" style="font-weight:bold;font-size:10px;stroke:none; fill:#434343"><tspan dy="14" x="-314">Contas a Pagar</tspan></text></g><rect x="40" y="10" width="821" height="203" ry="0" rx="0" style="stroke:#000000; fill:#FFFF80" /><g componentSequence="2"><text x="-111" y="48" transform="rotate(270)" text-anchor="middle" style="font-weight:bold;font-size:10px;stroke:none; fill:#434343"><tspan dy="14" x="-111">Solicitante</tspan></text></g><g componentSequence="1"><text x="-315" y="18" transform="rotate(270)" text-anchor="middle" style="font-weight:bold;font-size:10px;stroke:none; fill:#434343"><tspan dy="14" x="-315">Pool</tspan></text></g><g sequence="4"><ellipse cx="157" cy="93" rx="17" ry="17" stroke-width="1" style="fill:url(#linearGradient66FF6696FF96B6FFB6_59511720);" stroke="336633" /></g><g sequence="12"><rect x="160" y="240" width="106" height="76" ry="5" rx="5" style="fill:url(#linearGradientF8FBFEEDF5FCDEEDFAD4E7F8E2E5E9_223083945);" stroke="191970" /></g><g componentSequence="12"><text x="213" y="255" text-anchor="middle" style="font-weight:bold;font-size:10px;stroke:none; fill:#333399"><tspan dy="14" x="213">Confere</tspan><tspan dy="14" x="213">Informações</tspan></text></g><g sequence="14"><rect x="430" y="42" width="106" height="92" ry="5" rx="5" style="fill:url(#linearGradientF8FBFEEDF5FCDEEDFAD4E7F8E2E5E9_158628056);" stroke="191970" /></g><g componentSequence="14"><text x="483" y="57" text-anchor="middle" style="font-weight:bold;font-size:10px;stroke:none; fill:#333399"><tspan dy="14" x="483">Verifica</tspan><tspan dy="14" x="483">Inconsistênci</tspan><tspan dy="14" x="483">a</tspan></text></g><g sequence="17"><rect x="390" y="510" width="106" height="92" ry="5" rx="5" style="fill:url(#linearGradientF8FBFEEDF5FCDEEDFAD4E7F8E2E5E9_1282865042);" stroke="191970" /></g><g componentSequence="17"><text x="443" y="525" text-anchor="middle" style="font-weight:bold;font-size:10px;stroke:none; fill:#333399"><tspan dy="14" x="443">Confere os</tspan><tspan dy="14" x="443">Dados</tspan><tspan dy="14" x="443">Fiscais</tspan></text></g><g sequence="20"><rect x="560" y="270" width="106" height="76" ry="5" rx="5" style="fill:url(#linearGradientF8FBFEEDF5FCDEEDFAD4E7F8E2E5E9_797228263);" stroke="191970" /></g><g componentSequence="20"><text x="613" y="285" text-anchor="middle" style="font-weight:bold;font-size:10px;stroke:none; fill:#333399"><tspan dy="14" x="613">Processa</tspan><tspan dy="14" x="613">Pagamento</tspan></text></g><g sequence="22"><ellipse cx="727" cy="137" rx="17" ry="17" stroke-width="3" style="fill:url(#linearGradientFF6666FF9696FFB6B6_2104539659);" stroke="993333" /></g><g sequence="24"><polygon points=" 410 293 440 263 470 293 440 323 410 293" style="fill:url(#linearGradientFAFBFCFFFFCC_1466478533);" stroke="000000" /></g><g componentSequence="24"><text x="440" y="333" text-anchor="middle" style="font-weight:bold;font-size:10px;stroke:none; fill:#333399"><tspan dy="14" x="440">Decisã</tspan><tspan dy="14" x="440">o</tspan></text></g><g sequence="30"><polygon points=" 240 470 270 440 300 470 270 500 240 470" style="fill:url(#linearGradientFAFBFCFFFFCC_744032477);" stroke="000000" /></g><g componentSequence="30"><text x="270" y="510" text-anchor="middle" style="font-weight:bold;font-size:10px;stroke:none; fill:#333399"><tspan dy="14" x="270">Decisã</tspan><tspan dy="14" x="270">o</tspan></text></g><g sequence="35"><polygon points=" 760 280 790 250 820 280 790 310 760 280" style="fill:url(#linearGradientFAFBFCFFFFCC_649132597);" stroke="000000" /></g><g componentSequence="35"><text x="790" y="320" text-anchor="middle" style="font-weight:bold;font-size:10px;stroke:none; fill:#333399"><tspan dy="14" x="790">Decisã</tspan><tspan dy="14" x="790">o</tspan></text></g><g componentSequence="25"><text x="348" y="299" style="font-size:10px;font-weight:none;stroke:none; fill:#333399" text-anchor="left" /></g><g componentSequence="27"><text x="451" y="440" style="font-size:10px;font-weight:none;stroke:none; fill:#333399" text-anchor="left" /></g><g componentSequence="28"><text x="472" y="198" style="font-size:10px;font-weight:none;stroke:none; fill:#333399" text-anchor="left" /></g><g componentSequence="29"><text x="358" y="183" style="font-size:10px;font-weight:none;stroke:none; fill:#333399" text-anchor="left" /></g><g componentSequence="31"><text x="355" y="520" style="font-size:10px;font-weight:none;stroke:none; fill:#333399" text-anchor="left" /></g><g componentSequence="32"><text x="249" y="378" style="font-size:10px;font-weight:none;stroke:none; fill:#333399" text-anchor="left" /></g><g componentSequence="33"><text x="440" y="407" style="font-size:10px;font-weight:none;stroke:none; fill:#333399" text-anchor="left" /></g><g componentSequence="34"><text x="192" y="175" style="font-size:10px;font-weight:none;stroke:none; fill:#333399" text-anchor="left" /></g><g componentSequence="36"><text x="723" y="305" style="font-size:10px;font-weight:none;stroke:none; fill:#333399" text-anchor="left" /></g><g componentSequence="37"><text x="762" y="202" style="font-size:10px;font-weight:none;stroke:none; fill:#333399" text-anchor="left" /></g><g componentSequence="38"><text x="638" y="422" style="font-size:10px;font-weight:none;stroke:none; fill:#333399" text-anchor="left" /></g><path style="fill:none; stroke:#000000;stroke-width:1" d="M162.0 110.0 L201.0 239.0" /><polygon style="fill:#000000; stroke:#000000;" points=" 203 228 201 239 193 231 199 231" /><path style="fill:none; stroke:#000000;stroke-width:1" d="M266.0 287.0 L409.0 311.0" /><polygon style="fill:#000000; stroke:#000000;" points=" 400 304 409 311 398 314 401 310" /><path style="fill:none; stroke:#000000;stroke-width:1" d="M429.0 125.0 L266.0 240.0" /><polygon style="fill:#000000; stroke:#000000;" points=" 277 238 266 240 271 230 273 235" /><path style="fill:none; stroke:#000000;stroke-width:1" d="M255.0 439.0 L223.0 316.0" /><polygon style="fill:#000000; stroke:#000000;" points=" 221 327 223 316 230 324 225 324" /><path style="fill:none; stroke:#000000;stroke-width:1" d="M450.0 262.0 L474.0 134.0" /><polygon style="fill:#000000; stroke:#000000;" points=" 467 143 474 134 477 145 473 142" /><path style="fill:none; stroke:#000000;stroke-width:1" d="M389.0 536.0 L300.0 504.0" /><polygon style="fill:#000000; stroke:#000000;" points=" 308 512 300 504 311 503 308 507" /><path style="fill:none; stroke:#000000;stroke-width:1" d="M440.0 371.0 L442.0 509.0" /><polygon style="fill:#000000; stroke:#000000;" points=" 447 499 442 509 437 499 442 501" /><path style="fill:none; stroke:#000000;stroke-width:1" d="M759.0 326.0 L496.0 517.0" /><polygon style="fill:#000000; stroke:#000000;" points=" 507 515 496 517 501 507 502 512" /><path style="fill:none; stroke:#000000;stroke-width:1" d="M666.0 306.0 L759.0 304.0" /><polygon style="fill:#000000; stroke:#000000;" points=" 749 299 759 304 749 309 751 304" /><path style="fill:none; stroke:#000000;stroke-width:1" d="M300.0 477.0 L559.0 337.0" /><polygon style="fill:#000000; stroke:#000000;" points=" 548 337 559 337 553 346 552 341" /><path style="fill:none; stroke:#000000;stroke-width:1" d="M769.0 249.0 L733.0 153.0" /><polygon style="fill:#000000; stroke:#000000;" points=" 732 164 733 153 741 161 736 160" /><defs><linearGradient xmlns:xlink="http://www.w3.org/1999/xlink" xlink:href="#linearGradient66FF6696FF96B6FFB6" id="linearGradient66FF6696FF96B6FFB6_59511720" x1="0" y1="76.0" x2="0" y2="111.0" gradientUnits="userSpaceOnUse" xlink:type="simple" xlink:actuate="onLoad" xlink:show="other" /><linearGradient id="linearGradient66FF6696FF96B6FFB6"><stop style="stop-color:#66FF66;stop-opacity:1;" offset="0.0" id="stop66FF66" /><stop style="stop-color:#96FF96;stop-opacity:1;" offset="0.5" id="stop96FF96" /><stop style="stop-color:#B6FFB6;stop-opacity:1;" offset="1.0" id="stopB6FFB6" /></linearGradient><linearGradient xmlns:xlink="http://www.w3.org/1999/xlink" xlink:href="#linearGradientF8FBFEEDF5FCDEEDFAD4E7F8E2E5E9" id="linearGradientF8FBFEEDF5FCDEEDFAD4E7F8E2E5E9_223083945" x1="0" y1="240.0" x2="0" y2="346.0" gradientUnits="userSpaceOnUse" xlink:type="simple" xlink:actuate="onLoad" xlink:show="other" /><linearGradient id="linearGradientF8FBFEEDF5FCDEEDFAD4E7F8E2E5E9"><stop style="stop-color:#F8FBFE;stop-opacity:1;" offset="0.0" id="stopF8FBFE" /><stop style="stop-color:#EDF5FC;stop-opacity:1;" offset="0.25" id="stopEDF5FC" /><stop style="stop-color:#DEEDFA;stop-opacity:1;" offset="0.5" id="stopDEEDFA" /><stop style="stop-color:#D4E7F8;stop-opacity:1;" offset="0.75" id="stopD4E7F8" /><stop style="stop-color:#E2E5E9;stop-opacity:1;" offset="1.0" id="stopE2E5E9" /></linearGradient><linearGradient xmlns:xlink="http://www.w3.org/1999/xlink" xlink:href="#linearGradientF8FBFEEDF5FCDEEDFAD4E7F8E2E5E9" id="linearGradientF8FBFEEDF5FCDEEDFAD4E7F8E2E5E9_158628056" x1="0" y1="42.0" x2="0" y2="148.0" gradientUnits="userSpaceOnUse" xlink:type="simple" xlink:actuate="onLoad" xlink:show="other" /><linearGradient xmlns:xlink="http://www.w3.org/1999/xlink" xlink:href="#linearGradientF8FBFEEDF5FCDEEDFAD4E7F8E2E5E9" id="linearGradientF8FBFEEDF5FCDEEDFAD4E7F8E2E5E9_1282865042" x1="0" y1="510.0" x2="0" y2="616.0" gradientUnits="userSpaceOnUse" xlink:type="simple" xlink:actuate="onLoad" xlink:show="other" /><linearGradient xmlns:xlink="http://www.w3.org/1999/xlink" xlink:href="#linearGradientF8FBFEEDF5FCDEEDFAD4E7F8E2E5E9" id="linearGradientF8FBFEEDF5FCDEEDFAD4E7F8E2E5E9_797228263" x1="0" y1="270.0" x2="0" y2="376.0" gradientUnits="userSpaceOnUse" xlink:type="simple" xlink:actuate="onLoad" xlink:show="other" /><linearGradient xmlns:xlink="http://www.w3.org/1999/xlink" xlink:href="#linearGradientFF6666FF9696FFB6B6" id="linearGradientFF6666FF9696FFB6B6_2104539659" x1="0" y1="120.0" x2="0" y2="155.0" gradientUnits="userSpaceOnUse" xlink:type="simple" xlink:actuate="onLoad" xlink:show="other" /><linearGradient id="linearGradientFF6666FF9696FFB6B6"><stop style="stop-color:#FF6666;stop-opacity:1;" offset="0.0" id="stopFF6666" /><stop style="stop-color:#FF9696;stop-opacity:1;" offset="0.5" id="stopFF9696" /><stop style="stop-color:#FFB6B6;stop-opacity:1;" offset="1.0" id="stopFFB6B6" /></linearGradient><linearGradient xmlns:xlink="http://www.w3.org/1999/xlink" xlink:href="#linearGradientFAFBFCFFFFCC" id="linearGradientFAFBFCFFFFCC_1466478533" x1="0" y1="263.0" x2="0" y2="323.0" gradientUnits="userSpaceOnUse" xlink:type="simple" xlink:actuate="onLoad" xlink:show="other" /><linearGradient id="linearGradientFAFBFCFFFFCC"><stop style="stop-color:#FAFBFC;stop-opacity:1;" offset="0.0" id="stopFAFBFC" /><stop style="stop-color:#FFFFCC;stop-opacity:1;" offset="1.0" id="stopFFFFCC" /></linearGradient><linearGradient xmlns:xlink="http://www.w3.org/1999/xlink" xlink:href="#linearGradientFAFBFCFFFFCC" id="linearGradientFAFBFCFFFFCC_744032477" x1="0" y1="440.0" x2="0" y2="500.0" gradientUnits="userSpaceOnUse" xlink:type="simple" xlink:actuate="onLoad" xlink:show="other" /><linearGradient xmlns:xlink="http://www.w3.org/1999/xlink" xlink:href="#linearGradientFAFBFCFFFFCC" id="linearGradientFAFBFCFFFFCC_649132597" x1="0" y1="250.0" x2="0" y2="310.0" gradientUnits="userSpaceOnUse" xlink:type="simple" xlink:actuate="onLoad" xlink:show="other" /></defs></svg>
